#!OML:ASF H:\GeneralSubjects\Female5\Project 1\Capture day 1\Session 1\Female5.ASF
:FULLY-SPECIFIED
:DEGREES
225
root 3.25057 16.6826 2.54307 -166.061 -27.6035 -178.422
lowerback 1.63493 3.89449 1.04933
upperback -16.0283 3.2434 -2.50006
thorax -18.9679 0.266517 -3.7788
lowerneck -16.2288 8.46869 10.2735
upperneck 35.2351 11.1432 -9.86517
head 16.6973 3.87568 -4.221
rclavicle -6.16232e-014 -6.04305e-014
rhumerus -42.7987 -3.38805 0.924535
rradius 31.7372
rwrist -46.5031
rhand -43.3421 -30.4001
rfingers 7.12502
rthumb -16.1878 -59.7442
lclavicle -6.16232e-014 -6.04305e-014
lhumerus -42.4089 17.1911 1.74868
lradius 31.9507
lwrist 12.509
lhand -52.355 62.7392
lfingers 7.12502
lthumb -24.8477 -91.1445
rfemur 1.76132 35.8666 24.7952
rtibia -8.57432
rfoot -43.5475 -31.9429
rtoes 18.0465
lfemur -0.0101771 -40.1258 -21.8417
ltibia -2.55427
lfoot -53.7218 -2.65113
ltoes -6.30648
226
root 3.24146 16.6814 2.54481 -166.136 -27.6936 -178.36
lowerback 1.60577 3.85846 1.15861
upperback -15.9905 3.21977 -2.47291
thorax -18.8912 0.249327 -3.80086
lowerneck -16.1847 8.48894 10.2495
upperneck 35.3465 11.189 -9.9076
head 16.7546 3.87563 -4.23713
rclavicle 2.5842e-014 -1.11319e-014
rhumerus -43.1473 -3.32186 0.396726
rradius 31.687
rwrist -46.7464
rhand -43.3622 -30.5148
rfingers 7.12502
rthumb -16.2072 -59.8573
lclavicle 2.5842e-014 -1.11319e-014
lhumerus -43.2807 17.3763 1.95275
lradius 32.0994
lwrist 12.5425
lhand -52.1598 62.6377
lfingers 7.12502
lthumb -24.6606 -91.0687
rfemur 1.91735 35.8169 24.8712
rtibia -8.69466
rfoot -43.6419 -31.8675
rtoes 17.9998
lfemur 0.0524761 -40.235 -21.8551
ltibia -2.56388
lfoot -53.7732 -1.91801
ltoes -7.24263
227
root 3.23699 16.679 2.55006 -166.159 -27.8171 -178.353
lowerback 1.65106 3.85958 1.22644
upperback -15.9872 3.22927 -2.50805
thorax -18.9107 0.24032 -3.88394
lowerneck -16.2315 8.52804 10.3777
upperneck 35.5313 11.2341 -10.0051
head 16.893 3.88543 -4.30831
rclavicle 8.15017e-015 6.04305e-014
rhumerus -43.7269 -2.81265 -0.253151
rradius 31.7832
rwrist -47.2623
rhand -43.5518 -30.3715
rfingers 7.12502
rthumb -16.3897 -59.699
lclavicle 8.15017e-015 6.04305e-014
lhumerus -43.9304 17.6293 2.19672
lradius 32.1163
lwrist 12.5797
lhand -52.0864 63.3052
lfingers 7.12502
lthumb -24.5904 -91.7458
rfemur 1.93536 35.7341 24.864
rtibia -8.6859
rfoot -43.5078 -32.0434
rtoes 17.7895
lfemur -0.0952142 -39.8532 -21.7955
ltibia -2.49322
lfoot -53.2646 -1.95404
ltoes -7.50685
228
root 3.231 16.6752 2.55455 -166.177 -27.9029 -178.424
lowerback 1.71816 3.90349 1.23626
upperback -15.9765 3.28917 -2.58255
thorax -18.9325 0.259977 -3.99076
lowerneck -16.3615 8.59196 10.493
upperneck 35.7319 11.2953 -10.018
head 17.055 3.91298 -4.33291
rclavicle -1.07344e-014 -4.29375e-014
rhumerus -44.3985 -2.58214 -0.704802
rradius 31.9603
rwrist -47.5326
rhand -43.9294 -30.4728
rfingers 7.12502
rthumb -16.7532 -59.7699
lclavicle -1.07344e-014 -4.29375e-014
lhumerus -44.3966 17.8931 2.55779
lradius 32.0687
lwrist 12.638
lhand -52.0559 63.9934
lfingers 7.12502
lthumb -24.5611 -92.438
rfemur 1.95674 35.6707 24.7879
rtibia -8.60095
rfoot -43.5721 -32.1157
rtoes 17.6116
lfemur -0.216405 -38.9048 -21.8847
ltibia -2.34606
lfoot -52.0983 -2.27083
ltoes -7.30774
229
root 3.22177 16.6688 2.55761 -166.163 -27.9266 -178.587
lowerback 1.69727 3.9161 1.06219
upperback -15.894 3.30789 -2.5824
thorax -18.8149 0.309065 -3.89467
lowerneck -16.6557 8.69902 10.5179
upperneck 35.8319 11.4382 -9.97691
head 17.2045 3.97494 -4.28618
rclavicle -3.93594e-014 2.38542e-015
rhumerus -44.8018 -3.09137 -0.896915
rradius 32.0066
rwrist -47.2075
rhand -44.1564 -30.7751
rfingers 7.12502
rthumb -16.9718 -60.0537
lclavicle -3.93594e-014 2.38542e-015
lhumerus -45.1108 18.2212 3.04066
lradius 32.2945
lwrist 12.7831
lhand -52.039 64.4029
lfingers 7.12502
lthumb -24.5449 -92.8497
rfemur 2.06536 35.6361 24.6134
rtibia -8.62718
rfoot -43.9713 -31.7434
rtoes 18.2138
lfemur -0.185032 -38.4773 -22.147
ltibia -2.2816
lfoot -51.5647 -1.48444
ltoes -8.36367
230
root 3.21805 16.6639 2.56265 -166.127 -27.966 -178.648
lowerback 1.55909 3.87677 0.837934
upperback -15.7206 3.27929 -2.50374
thorax -18.5042 0.367978 -3.662
lowerneck -17.1284 8.81758 10.6086
upperneck 35.7859 11.6271 -10.0725
head 17.3482 4.05357 -4.2886
rclavicle -3.67752e-014 -2.94201e-014
rhumerus -45.0147 -4.14133 -1.10157
rradius 31.931
rwrist -46.547
rhand -44.2703 -30.8145
rfingers 7.12502
rthumb -17.0814 -60.0836
lclavicle -3.67752e-014 -2.94201e-014
lhumerus -45.8282 18.9643 3.48296
lradius 32.3869
lwrist 12.7817
lhand -52.1132 64.8155
lfingers 7.12502
lthumb -24.6161 -93.2526
rfemur 1.98555 35.6208 24.4778
rtibia -8.57699
rfoot -44.3313 -31.2986
rtoes 19.5169
lfemur -0.264885 -38.6655 -22.1482
ltibia -2.27931
lfoot -51.5639 -1.08362
ltoes -8.28388
231
root 3.2145 16.6599 2.56765 -166.223 -27.972 -178.591
lowerback 1.4044 3.85701 0.874043
upperback -15.5642 3.29962 -2.4457
thorax -18.1843 0.405537 -3.6043
lowerneck -17.1121 8.8407 10.6206
upperneck 35.5886 11.7087 -10.1918
head 17.2633 4.08449 -4.31438
rclavicle 5.48646e-014 1.59028e-015
rhumerus -45.2371 -4.80585 -1.56732
rradius 31.881
rwrist -46.1761
rhand -44.4944 -30.9008
rfingers 7.12502
rthumb -17.2971 -60.1511
lclavicle 5.48646e-014 1.59028e-015
lhumerus -46.4374 19.765 3.73667
lradius 32.1062
lwrist 12.4581
lhand -51.9962 64.4143
lfingers 7.12502
lthumb -24.5039 -92.8666
rfemur 1.96773 35.6628 24.5063
rtibia -8.4429
rfoot -44.3012 -31.3634
rtoes 19.8833
lfemur -0.241346 -38.4488 -22.1187
ltibia -2.27844
lfoot -51.2286 -1.5752
ltoes -7.33277
232
root 3.20907 16.6521 2.57419 -166.393 -27.943 -178.539
lowerback 1.43959 3.8519 0.922714
upperback -15.4299 3.34304 -2.38857
thorax -18.0232 0.446159 -3.57178
lowerneck -17.0988 8.86069 10.5877
upperneck 35.5317 11.7493 -10.18
head 17.2313 4.10281 -4.28982
rclavicle 2.38542e-015 2.22639e-014
rhumerus -45.4626 -5.26039 -2.07946
rradius 31.717
rwrist -45.8401
rhand -44.688 -31.0459
rfingers 7.12502
rthumb -17.4834 -60.2797
lclavicle 2.38542e-015 2.22639e-014
lhumerus -47.0034 20.5433 4.00369
lradius 31.8317
lwrist 11.9607
lhand -51.7398 63.0916
lfingers 7.12502
lthumb -24.2581 -91.577
rfemur 1.95912 35.7396 24.5653
rtibia -8.16162
rfoot -43.8101 -31.643
rtoes 20.2316
lfemur -0.076302 -38.0618 -22.2324
ltibia -2.27986
lfoot -50.8497 -1.89603
ltoes -7.01859
233
root 3.20617 16.6434 2.5823 -166.528 -27.933 -178.472
lowerback 1.57962 3.87135 0.919679
upperback -15.3866 3.40027 -2.3116
thorax -18.0611 0.488116 -3.49968
lowerneck -17.1832 8.72668 10.2289
upperneck 35.5849 11.5779 -9.95194
head 17.1959 4.01165 -4.15881
rclavicle -9.323e-014 -2.62396e-014
rhumerus -45.7388 -5.79137 -2.4275
rradius 31.4989
rwrist -45.1476
rhand -44.7882 -31.217
rfingers 7.12502
rthumb -17.5798 -60.4422
lclavicle -9.323e-014 -2.62396e-014
lhumerus -47.5304 20.9795 4.49678
lradius 31.7466
lwrist 11.725
lhand -51.624 62.0308
lfingers 7.12502
lthumb -24.147 -90.531
rfemur 1.82788 35.8091 24.6143
rtibia -7.77899
rfoot -43.709 -31.4032
rtoes 21.1983
lfemur 0.0733939 -38.243 -22.3084
ltibia -2.25436
lfoot -51.0529 -1.75993
ltoes -7.1104
